<svg width="25" height="25" viewBox="0 0 25 25" fill="none" xmlns="http://www.w3.org/2000/svg">
<rect width="25" height="25" fill="#E5E5E5"/>
<g clip-path="url(#clip0_0_1)">
<rect width="1440" height="8292" transform="translate(-665 -7376)" fill="#ECEBE8"/>
<path d="M0 11.1188L7.67716 13.7431L10.4331 13.8812L8.13648 15.6077L3.41207 22.4447L6.75853 25L11.4829 18.163L12.4672 15.4006L13.3858 18.232L18.1102 25L21.4567 22.4447L16.7979 15.6077L14.5669 13.9503L17.3885 13.8122L25 11.1878L23.7533 7.0442L16.0761 9.59945L13.7795 11.395L14.6325 8.42541V0H10.4987V8.42541L11.2861 11.326L8.92388 9.53039L1.31234 6.90608L0 11.1188Z" fill="#242424"/>
</g>
<defs>
<clipPath id="clip0_0_1">
<rect width="1440" height="8292" fill="white" transform="translate(-665 -7376)"/>
</clipPath>
</defs>
</svg>
